<?xml version="1.0" encoding="utf-8"?>
<!-- Generator: Adobe Illustrator 23.0.3, SVG Export Plug-In . SVG Version: 6.00 Build 0)  -->
<svg version="1.1" id="Layer_1" xmlns="http://www.w3.org/2000/svg" xmlns:xlink="http://www.w3.org/1999/xlink" x="0px" y="0px"
	 viewBox="0 0 1224 477.33" style="enable-background:new 0 0 1224 477.33;" xml:space="preserve">
<style type="text/css">
	.st0{fill:#064C55;}
	.st1{fill:#056066;}
</style>
<path class="st0" d="M9.35,296.03c1.6-0.77,3.2-1.53,4.81-2.3C12.55,294.49,10.95,295.26,9.35,296.03z"/>
<path class="st1" d="M1224.11,79.07"/>
<path d="M0,476.98v-64.32c0,0,249.51-20.64,243.63-22.67c-12.87-4.45,176.1-73.56,172.59-73.04c0.44-0.85,103.89-77.94,104.58-78.25
	c21-9.65,41.43-21.49,66.13-17.08c3.76,0.67,7.75,0.21,11.63,0.05c15.03-0.6,28.11-5.68,38.4-17.01
	c13.65-8.69,27.38-17.26,40.93-26.11c19.87-12.98,39.58-26.2,59.41-39.24c9.8-6.45,19.05-14.4,29.74-18.67
	c15.86-6.33,32.91-9.63,49.2-14.97c5.48-1.8,10.22-5.88,15.3-8.91c2.55-0.71,5.35-0.97,7.62-2.21
	c11.58-6.32,22.89-13.16,34.55-19.31c10.39-5.48,20.86-5.82,31.56,0.19c24.6,13.82,50.38,25.69,71.85,44.55
	c11.91,9.7,24.54,18.65,35.51,29.31c9.4,9.13,20.35,12.62,32.47,15.41c17.73,4.08,35.33,8.85,52.7,14.26
	c9.58,2.99,18.56,7.89,27.81,11.92c5.69,4.96,11.52,9.76,17.01,14.93c3.65,3.44,68.83,42.96,69.01,46.84
	c0.55,11.6,12.37,23.41,12.37,23.41v201.26"/>
</svg>
