<?xml version="1.0" encoding="utf-8"?>
<!-- Generator: Adobe Illustrator 23.0.3, SVG Export Plug-In . SVG Version: 6.00 Build 0)  -->
<svg version="1.1" id="Layer_1" xmlns="http://www.w3.org/2000/svg" xmlns:xlink="http://www.w3.org/1999/xlink" x="0px" y="0px"
	 viewBox="0 0 1224 477.3" style="enable-background:new 0 0 1224 477.3;" xml:space="preserve">
<style type="text/css">
	.st0{fill:#064C55;}
	.st1{fill:#056066;}
</style>
<path class="st0" d="M9.4,296c1.6-0.8,3.2-1.5,4.8-2.3C12.6,294.5,10.9,295.3,9.4,296z"/>
<path class="st1" d="M1224.1,79.1"/>
<g>
	<path d="M1223.9,205.3"/>
	<path d="M1190.8,356c0,0-7.6-22.6-11.3-20.4c-3.6,2-7.1-1.7-10.8,0c-3.8,1.7-7.7-18.1-11.7-16.9c-2.3,0.8-5.6-2.4-7-0.9
		c-5.4,6.1-9.4-9.9-20-11.6c-1.8-0.3-4.3-9-6.9-6.7c-2.7,2.4-5.7,5.3-9.1,6.7c-4.8,2-10,1.8-16.5,3.6c-8.1-5.9-18.5-3.7-28.9-0.4
		c-2,0.6-4.9-4.1-6.1-4.9c-9.1-6.4-11.3-13.8-14.9-7.6c-5.6,9.7-11.7-4.3-18.3,4.8c-4.5,6.1-19.6,7-29.2,1.3
		c-6.7-4-12.7-5.5-20.9-4.6c-8.3,0.9-17-2.5-25.6-4.1c-6.5-1.2-13.1-2.2-19.5-3.5c-1.7-0.4-3.6-1.4-4.8-2.7
		c-9.5-10-20.5-10.8-32.9-6.4c-5.4,1.9-11.3,3.6-16.9,3.4c-7.8-0.2-14.2,0.3-21.3,5.2c-11.8,8.1-26.5,8-40.5,9.2
		c-6.7,0.6-13.3,2.5-20,3.8c-0.1-0.1-0.2-0.1-0.3-0.2c0.1,0,0.2-0.1,0.3-0.1c-1.4-0.8-2.7-1.8-4.1-2.3c-20.1-7-40.2-13.9-60.3-20.8
		c-0.9-0.3-2-0.7-2.8-0.4c-11,3.7-20.3-3.1-30.4-5c-7.9-1.5-15.4-5.2-23-8.1c-7.5-2.9-15-6-22.4-9.3c-0.9-0.4-1.4-1.6-1.6-2.2
		c0,0,0,0,0,0c0,0,0,0,0-0.1c0-0.1,0-0.2,0-0.2c-3.9,1.1-7,2.6-10.1,2.6c-8.3,0.1-17.5-2.9-24.8-0.3c-12.3,4.4-18.5-3.6-26.7-8.6
		c-2.9-1.8-6.3-2.7-9.4-4.2c-5.4-2.6-10.7-5.3-16-8.1c-4.9-2.5-9.5-6-14.7-7.5c-6.7-2-15.5-0.3-20.5-4
		c-11.7-8.8-21.5-20.1-32.4-29.9c-3.6-3.2-8.4-6.1-13-6.9c-13.3-2.4-26.7-4.1-40.1-5.1c-9.5-0.7-18.1-4.8-28.8-1.9
		c-12.9,3.5-26.9,1.8-38.2-8.9c-5.3-5-12.5-8.4-19.5-10.9c-6-2.2-12.9-3.2-19.2-2.6c-7.5,0.6-14.8,3.6-22.2,5.4
		c-5.1,1.2-10.7,1-15.3,3.1c-7.9,3.6-15,8.7-22.7,12.7c-4.8,2.5-10.1,6.4-14.9,6c-15.5-1.2-28,3.3-38.1,14.9
		c-0.9,1.1-2.5,1.7-3.9,2.2c-11.7,4.5-23.3,9.1-35.2,13.1c-2.9,1-7.6,1-9.8-0.7c-10.1-7.7-22.3-7.6-33.7-9.7
		c-11.3-2.1-22.9-1.9-34.3-3.4c-3.8-0.5-7.6-2.8-10.9-4.9c-4.5-2.9-8.1-7.6-12.9-9.4c-14.1-5.2-28.5-9.6-42.9-13.7
		c-3.4-1-7.7-0.6-11.1,0.5c-10.7,3.3-21.3,7.2-31.9,10.9c0,0.1,0,0.2,0,0.3c0,9.3,0,34.1,0,58.4c0,12.4,0,40.3,0,64.1H0v169.2h1224
		v-66.7L1190.8,356z"/>
	<path d="M653.2,254.5C653.2,254.5,653.2,254.4,653.2,254.5C653.2,254.3,653.2,254.4,653.2,254.5z"/>
</g>
</svg>
